<svg version="1.1" id="icon-svg" xmlns="http://www.w3.org/2000/svg" viewBox="0 0 32 32" xml:space="preserve" width="64" height="64">
  <defs>
    <linearGradient id="grad1" x1="0%" y1="0%" x2="100%" y2="100%">
      <stop offset="0%" style="stop-color:#3498db;stop-opacity:1" />
      <stop offset="100%" style="stop-color:#2c3e50;stop-opacity:1" />
    </linearGradient>
  </defs>
  <g id="icon-group">
    <circle cx="16" cy="16" r="14" fill="url(#grad1)" />
    <g id="code-group" transform="translate(6, 10)">
      <path fill="#f1faee" d="M20.6,14.6c-0.8-0.8-2.1-0.8-2.8,0l-7,7c-0.8,0.8-0.8,2.1,0,2.8l7,7c0.8,0.8,2.1,0.8,2.8,0
        c0.8-0.8,0.8-2.1,0-2.8L16.8,24l3.8-3.8C21.4,16.7,21.4,15.4,20.6,14.6z"/>
      <path fill="#f1faee" d="M34.2,21.6l-7-7c-0.8-0.8-2.1-0.8-2.8,0s-0.8,2.1,0,2.8L28.2,24l-3.8,3.8c-0.8,0.8-0.8,2.1,0,2.8
        c0.8,0.8,2.1,0.8,2.8,0l7-7C35,23.8,35,22.4,34.2,21.6z"/>
    </g>
    <g id="person-group" transform="translate(12, 8)">
      <circle fill="#f1faee" cx="14" cy="8" r="6" />
      <path fill="#f1faee" d="M14,18c-6.6,0-12,5.4-12,12v4c0,1.1,0.9,2,2,2h20c1.1,0,2-0.9,2-2v-4C26,23.4,20.6,18,14,18z"/>
    </g>
    <g id="star-group" transform="translate(20, 24)">
      <polygon fill="#f1faee" points="6.5,0 8.2,4.4 13,4.4 9.2,7.1 10.8,11.5 6.5,8.8 2.2,11.5 3.8,7.1 0,4.4 "/>
    </g>
  </g>
</svg>